name C:\Users\Graham\Documents\MATLAB\MOtoNMS_v2_2\MyData\ElaboratedData\S1\17-05-18\dynamicElaborations\rightStSt\\ET2\ET2.mot
datacolumns 19
datarows 23
range 1.05 1.08667
endheader

time	    ground_force1_vx	    ground_force1_vy	    ground_force1_vz	    ground_force1_px	    ground_force1_py	    ground_force1_pz	    ground_force2_vx	    ground_force2_vy	    ground_force2_vz	    ground_force2_px	    ground_force2_py	    ground_force2_pz	    ground_torque1_x	    ground_torque1_y	    ground_torque1_z	    ground_torque2_x	    ground_torque2_y	    ground_torque2_z	
1.05	          8.66622434	         44.22548126	          3.44505946	          0.31615202	         -0.00000000	          0.08317071	        105.50897319	        808.48703346	         43.56515768	         -0.00478969	          0.00000000	         -0.07884390	         -0.00000000	         -0.88160951	          0.00000000	          0.00000000	          1.97172800	         -0.00000000	
1.05167	          9.60376903	         52.06591876	          4.18020927	          0.31908540	         -0.00000000	          0.08289399	        106.83818672	        805.76184795	         43.43924899	         -0.00622560	          0.00000000	         -0.07876178	         -0.00000000	         -0.99392620	          0.00000000	          0.00000000	          1.94794920	         -0.00000000	
1.05333	         10.39368710	         60.06274746	          4.95525719	          0.32179512	         -0.00000000	          0.08260593	        108.17655581	        802.90341232	         43.30339290	         -0.00764661	          0.00000000	         -0.07867706	         -0.00000000	         -1.09699823	          0.00000000	          0.00000000	          1.92185831	         -0.00000000	
1.055	         11.00828536	         68.11622031	          5.75990363	          0.32432321	         -0.00000000	          0.08231191	        109.52230940	        799.90620519	         43.15614342	         -0.00905111	          0.00000000	         -0.07858953	         -0.00000000	         -1.18875264	          0.00000000	          0.00000000	          1.89332597	         -0.00000000	
1.05667	         11.42842051	         76.14875918	          6.58418533	          0.32670210	         -0.00000000	          0.08201618	        110.87351417	        796.76456266	         42.99600407	         -0.01043762	          0.00000000	         -0.07849900	         -0.00000000	         -1.26785073	          0.00000000	          0.00000000	          1.86222011	         -0.00000000	
1.05833	         11.64364707	         84.10751632	          7.41885528	          0.32895705	         -0.00000000	          0.08172211	        112.22807045	        793.47269917	         42.82143422	         -0.01180476	          0.00000000	         -0.07840528	         -0.00000000	         -1.33367979	          0.00000000	          0.00000000	          1.82840634	         -0.00000000	
1.06	         11.65166115	         91.96446828	          8.25562633	          0.33110788	         -0.00000000	          0.08143242	        113.58370864	        790.02473022	         42.63085581	         -0.01315127	          0.00000000	         -0.07830820	         -0.00000000	         -1.38628704	          0.00000000	          0.00000000	          1.79174835	         -0.00000000	
1.06167	         11.45720368	         99.71444600	          9.08728295	          0.33317016	         -0.00000000	          0.08114934	        114.93798616	        786.41469703	         42.42266049	         -0.01447604	          0.00000000	         -0.07820761	         -0.00000000	         -1.42627152	          0.00000000	          0.00000000	          1.75210862	         -0.00000000	
1.06333	         11.07060789	        107.37162512	          9.90767679	          0.33515622	         -0.00000000	          0.08087469	        116.28828498	        782.63659304	         42.19521728	         -0.01577811	          0.00000000	         -0.07810337	         -0.00000000	         -1.45465107	          0.00000000	          0.00000000	          1.70934921	         -0.00000000	
1.065	         10.50617384	        114.96504113	         10.71162942	          0.33707578	         -0.00000000	          0.08061000	        117.63180975	        778.68439230	         41.94688066	         -0.01705666	          0.00000000	         -0.07799535	         -0.00000000	         -1.47272024	          0.00000000	          0.00000000	          1.66333289	         -0.00000000	
1.06667	          9.78053405	        122.53367322	         11.49476883	          0.33893646	         -0.00000000	          0.08035652	        118.96558643	        774.55207972	         41.67599927	         -0.01831103	          0.00000000	         -0.07788345	         -0.00000000	         -1.48191275	          0.00000000	          0.00000000	          1.61392439	         -0.00000000	
1.06833	          8.91114425	        130.12157463	         12.25332725	          0.34074425	         -0.00000000	          0.08011532	        120.28646162	        770.23368311	         41.38092534	         -0.01954072	          0.00000000	         -0.07776757	         -0.00000000	         -1.48367918	          0.00000000	          0.00000000	          1.56099207	         -0.00000000	
1.07	          7.91499759	        137.77343360	         12.98392574	          0.34250372	         -0.00000000	          0.07988727	        121.59110247	        765.72330694	         41.06002471	         -0.02074540	          0.00000000	         -0.07764766	         -0.00000000	         -1.47938704	          0.00000000	          0.00000000	          1.50440966	         -0.00000000	
1.07167	          6.80762350	        145.53084092	         13.68336746	          0.34421832	         -0.00000000	          0.07967309	        122.87599740	        761.01516779	         40.71168764	         -0.02192489	          0.00000000	         -0.07752366	         -0.00000000	         -1.47024708	          0.00000000	          0.00000000	          1.44405829	         -0.00000000	
1.07333	          5.60239782	        153.42943084	         14.34845687	          0.34589053	         -0.00000000	          0.07947340	        124.13745756	        756.10363126	         40.33434048	         -0.02307919	          0.00000000	         -0.07739554	         -0.00000000	         -1.45726689	          0.00000000	          0.00000000	          1.37982869	         -0.00000000	
1.075	          4.31016047	        161.49696054	         14.97585666	          0.34752204	         -0.00000000	          0.07928865	        125.37161926	        750.98325019	         39.92645805	         -0.02420843	          0.00000000	         -0.07726329	         -0.00000000	         -1.44123027	          0.00000000	          0.00000000	          1.31162347	         -0.00000000	
1.07667	          2.93911296	        169.75230645	         15.56198948	          0.34911382	         -0.00000000	          0.07911923	        126.57444754	        745.64880388	         39.48657682	         -0.02531294	          0.00000000	         -0.07712692	         -0.00000000	         -1.42269911	          0.00000000	          0.00000000	          1.23935947	         -0.00000000	
1.07833	          1.49495110	        178.20528779	         16.10298631	          0.35066625	         -0.00000000	          0.07896541	        127.74174090	        740.09533809	         39.01330886	         -0.02639314	          0.00000000	         -0.07698647	         -0.00000000	         -1.40203335	          0.00000000	          0.00000000	          1.16297011	         -0.00000000	
1.08	         -0.01882176	        186.85717972	         16.59467970	          0.35217922	         -0.00000000	          0.07882737	        128.86913757	        734.31820531	         38.50535633	         -0.02744965	          0.00000000	         -0.07684198	         -0.00000000	         -1.37942386	          0.00000000	          0.00000000	          1.08240768	         -0.00000000	
1.08167	         -1.60045978	        195.70175124	         17.03263690	          0.35365216	         -0.00000000	          0.07870522	        129.95212351	        728.31310501	         37.96152653	         -0.02848319	          0.00000000	         -0.07669354	         -0.00000000	         -1.35493326	          0.00000000	          0.00000000	          0.99764555	         -0.00000000	
1.08333	         -3.24947472	        204.72665357	         17.41222554	          0.35508412	         -0.00000000	          0.07859898	        130.98604223	        722.07612324	         37.38074733	         -0.02949462	          0.00000000	         -0.07654124	         -0.00000000	         -1.32853982	          0.00000000	          0.00000000	          0.90868027	         -0.00000000	
1.085	         -4.96612251	        213.91499096	         17.72870363	          0.35647387	         -0.00000000	          0.07850862	        131.96610682	        715.60377121	         36.76208264	         -0.03048493	          0.00000000	         -0.07638519	         -0.00000000	         -1.30018033	          0.00000000	          0.00000000	          0.81553347	         -0.00000000	
1.08667	         -6.75091870	        223.24692387	         17.97732513	          0.35781990	         -0.00000000	          0.07843403	        132.88741442	        708.89302226	         36.10474788	         -0.03145524	          0.00000000	         -0.07622553	         -0.00000000	         -1.26978865	          0.00000000	          0.00000000	          0.71825373	         -0.00000000	
